HIERARCHY
ROOT Hips
{
  OFFSET 0.0000 0.0000 0.0000
  CHANNELS 6 Xposition Yposition Zposition Zrotation Xrotation Yrotation
  JOINT Chest
  {
    OFFSET -0.1728 10.2870 0.1254
    CHANNELS 3 Zrotation Xrotation Yrotation
    JOINT Chest2
    {
      OFFSET 0.3229 15.8173 -2.6440
      CHANNELS 3 Zrotation Xrotation Yrotation
      JOINT LeftCollar
      {
        OFFSET -0.0683 16.8828 0.2989
        CHANNELS 3 Zrotation Xrotation Yrotation
        JOINT LeftShoulder
        {
          OFFSET 16.0110 -3.0750 2.0528
          CHANNELS 3 Zrotation Xrotation Yrotation
          JOINT LeftElbow
          {
            OFFSET 2.6153 -25.4187 1.7231
            CHANNELS 3 Zrotation Xrotation Yrotation
            JOINT LeftWrist
            {
              OFFSET 2.3595 -22.4741 1.0488
              CHANNELS 3 Zrotation Xrotation Yrotation
              End Site
              {
                  OFFSET 1.4871 -13.9919 1.1523
              }
            }
          }
        }
      }
      JOINT RightCollar
      {
        OFFSET -0.0683 16.8828 0.2989
        CHANNELS 3 Zrotation Xrotation Yrotation
        JOINT RightShoulder
        {
          OFFSET -16.3743 -2.4390 2.0841
          CHANNELS 3 Zrotation Xrotation Yrotation
          JOINT RightElbow
          {
            OFFSET -2.6865 -25.0857 1.2959
            CHANNELS 3 Zrotation Xrotation Yrotation
            JOINT RightWrist
            {
              OFFSET -2.3810 -22.8348 1.0329
              CHANNELS 3 Zrotation Xrotation Yrotation
              End Site
              {
                  OFFSET -1.4652 -14.7234 1.0705
              }
            }
          }
        }
      }
      JOINT Neck
      {
        OFFSET -0.0683 16.8828 0.2989
        CHANNELS 3 Zrotation Xrotation Yrotation
        JOINT Head
        {
          OFFSET 0.1300 11.4121 4.7143
          CHANNELS 3 Zrotation Xrotation Yrotation
          End Site
          {
              OFFSET 0.0452 18.0438 0.3379
          }
        }
      }
    }
  }
  JOINT LeftHip
  {
    OFFSET 9.3186 -0.0408 3.5432
    CHANNELS 3 Zrotation Xrotation Yrotation
    JOINT LeftKnee
    {
      OFFSET -0.5435 -48.8357 0.3144
      CHANNELS 3 Zrotation Xrotation Yrotation
      JOINT LeftAnkle
      {
        OFFSET 0.2027 -38.4920 -4.2946
        CHANNELS 3 Zrotation Xrotation Yrotation
        End Site
        {
            OFFSET 1.1879 -7.4484 17.8063
        }
      }
    }
  }
  JOINT RightHip
  {
    OFFSET -10.0712 -0.0749 3.1483
    CHANNELS 3 Zrotation Xrotation Yrotation
    JOINT RightKnee
    {
      OFFSET 0.3157 -48.5179 0.1055
      CHANNELS 3 Zrotation Xrotation Yrotation
      JOINT RightAnkle
      {
        OFFSET -1.1248 -38.4399 -3.4305
        CHANNELS 3 Zrotation Xrotation Yrotation
        End Site
        {
            OFFSET -1.3336 -7.3741 17.3830
        }
      }
    }
  }
}
MOTION
Frames:	33
Frame Time:	0.041667
115.5105 96.4577 -120.6685 1.13 -16.32 3.76 2.07 19.43 -3.62 2.09 19.40 -3.60 -0.18 -0.70 0.26 23.89 -19.88 -70.05 9.27 -23.72 -2.33 -9.23 9.66 -0.75 -0.01 -0.80 0.01 -26.15 -20.68 93.14 -13.76 -17.20 3.33 14.48 -0.91 -60.81 0.31 -15.24 1.81 0.28 -7.93 1.80 9.52 8.22 -0.86 -0.20 7.55 0.04 -7.99 8.58 5.23 3.09 13.70 4.47 -0.23 6.54 -0.23 -3.00 -2.85 -6.92 
115.9338 96.4983 -120.2757 1.49 -17.03 3.92 1.85 19.79 -3.70 1.87 19.76 -3.68 -0.18 -0.70 0.26 24.07 -20.02 -70.18 9.27 -23.89 -2.33 -8.57 9.44 -1.46 -0.01 -0.80 0.01 -25.84 -21.19 94.80 -13.80 -16.29 3.33 14.27 -1.26 -65.32 0.21 -15.31 1.78 0.19 -7.99 1.77 8.93 10.16 -1.66 -0.20 5.60 0.02 -7.82 8.47 6.03 2.41 14.99 3.11 -0.21 5.90 -0.19 -2.75 -2.86 -5.64 
116.2888 96.5208 -119.8974 1.71 -17.56 4.09 1.66 20.00 -3.70 1.69 19.97 -3.68 -0.18 -0.70 0.26 24.25 -20.09 -69.86 9.25 -24.34 -2.35 -8.55 9.85 -1.34 -0.01 -0.80 0.01 -25.59 -21.37 95.41 -13.83 -15.75 3.33 14.57 -1.58 -65.64 0.19 -15.22 1.96 0.14 -7.91 1.95 8.55 11.87 -1.92 -0.18 3.81 0.02 -7.52 7.94 6.31 1.93 16.05 1.95 -0.19 5.31 -0.15 -2.53 -2.83 -4.57 
116.5816 96.5270 -119.5357 1.88 -18.02 4.30 1.51 20.18 -3.66 1.53 20.15 -3.64 -0.18 -0.70 0.26 24.34 -20.18 -69.16 9.24 -24.58 -2.36 -8.82 9.67 -0.47 -0.01 -0.80 0.01 -25.53 -21.40 95.53 -13.84 -15.57 3.33 15.14 -1.63 -64.25 0.18 -15.14 2.08 0.12 -7.83 2.07 8.29 13.35 -2.03 -0.16 2.22 0.01 -7.27 7.68 6.38 1.59 17.01 0.86 -0.18 4.75 -0.11 -2.33 -2.81 -3.70 
116.8247 96.5202 -119.2001 2.04 -18.48 4.56 1.39 20.36 -3.59 1.41 20.33 -3.58 -0.18 -0.70 0.26 24.26 -20.30 -68.21 9.24 -24.59 -2.37 -9.03 8.96 0.24 -0.01 -0.80 0.01 -25.56 -21.43 95.59 -13.84 -15.56 3.33 15.69 -1.60 -63.21 0.16 -15.09 2.03 0.10 -7.77 2.02 8.09 14.64 -2.29 -0.14 0.90 -0.03 -7.12 7.75 6.50 1.31 17.94 -0.25 -0.16 4.24 -0.07 -2.16 -2.79 -2.91 
117.0239 96.5039 -118.9034 2.20 -18.91 4.88 1.30 20.54 -3.51 1.32 20.51 -3.50 -0.18 -0.70 0.26 24.03 -20.50 -67.34 9.25 -24.51 -2.36 -9.00 8.57 -0.04 -0.01 -0.80 0.01 -25.62 -21.50 95.66 -13.83 -15.62 3.33 16.04 -1.78 -62.82 0.15 -15.07 1.90 0.11 -7.76 1.89 7.94 15.70 -2.70 -0.12 -0.11 -0.08 -7.00 7.83 6.65 1.08 18.81 -1.40 -0.15 3.81 -0.03 -2.00 -2.79 -2.12 
117.1718 96.4839 -118.6550 2.35 -19.27 5.22 1.21 20.69 -3.42 1.23 20.66 -3.40 -0.18 -0.70 0.26 23.79 -20.75 -66.97 9.24 -24.60 -2.37 -8.67 8.72 -0.67 -0.01 -0.80 0.01 -25.60 -21.56 95.60 -13.83 -15.63 3.33 16.16 -2.18 -62.28 0.14 -15.08 1.76 0.12 -7.77 1.76 7.85 16.48 -3.05 -0.11 -0.82 -0.11 -6.90 7.83 6.71 0.92 19.53 -2.54 -0.14 3.45 -0.00 -1.87 -2.80 -1.38 
117.2616 96.4714 -118.4527 2.50 -19.48 5.58 1.12 20.77 -3.30 1.14 20.74 -3.29 -0.18 -0.70 0.26 23.77 -20.96 -67.47 9.23 -24.93 -2.38 -7.87 8.89 -0.43 -0.01 -0.80 0.01 -25.49 -21.53 95.31 -13.84 -15.58 3.33 16.08 -2.45 -61.23 0.13 -15.08 1.64 0.12 -7.77 1.64 7.79 16.94 -3.19 -0.11 -1.26 -0.12 -6.83 7.85 6.54 0.82 20.02 -3.57 -0.13 3.12 0.02 -1.76 -2.81 -0.71 
117.2985 96.4767 -118.2837 2.67 -19.51 5.96 1.02 20.76 -3.17 1.04 20.73 -3.15 -0.18 -0.70 0.26 24.07 -21.02 -68.77 9.22 -25.44 -2.40 -6.46 8.64 1.27 -0.01 -0.80 0.01 -25.38 -21.36 94.83 -13.83 -15.66 3.33 15.88 -2.44 -60.49 0.11 -15.04 1.53 0.11 -7.73 1.53 7.73 17.11 -3.21 -0.10 -1.47 -0.13 -6.77 7.93 6.25 0.74 20.35 -4.40 -0.13 2.78 0.04 -1.69 -2.79 -0.19 
117.2945 96.4993 -118.1356 2.89 -19.49 6.37 0.88 20.71 -3.06 0.90 20.68 -3.05 -0.18 -0.70 0.26 24.62 -20.91 -70.31 9.20 -26.00 -2.43 -4.87 8.27 3.62 -0.01 -0.80 0.01 -25.30 -21.17 94.48 -13.83 -15.82 3.33 15.68 -2.30 -60.83 0.11 -14.94 1.51 0.12 -7.63 1.51 7.62 17.09 -3.22 -0.10 -1.51 -0.13 -6.75 8.13 5.93 0.64 20.63 -5.07 -0.13 2.43 0.05 -1.66 -2.73 0.13 
117.2674 96.5252 -117.9977 3.13 -19.47 6.81 0.73 20.65 -3.02 0.75 20.62 -3.01 -0.18 -0.70 0.26 25.07 -20.76 -71.41 9.19 -26.29 -2.44 -3.88 8.14 5.38 -0.01 -0.80 0.01 -25.27 -21.15 94.40 -13.82 -16.01 3.33 15.63 -2.04 -61.64 0.14 -14.80 1.61 0.14 -7.48 1.61 7.50 17.06 -3.30 -0.10 -1.48 -0.13 -6.74 8.34 5.63 0.55 20.94 -5.69 -0.12 2.05 0.06 -1.64 -2.65 0.34 
117.2471 96.5378 -117.8610 3.36 -19.49 7.25 0.61 20.64 -3.09 0.63 20.60 -3.07 -0.18 -0.70 0.26 25.26 -20.63 -71.85 9.19 -26.27 -2.44 -3.76 8.24 5.98 -0.01 -0.80 0.01 -25.30 -21.28 94.48 -13.81 -16.18 3.33 15.72 -1.65 -61.99 0.19 -14.63 1.75 0.17 -7.32 1.75 7.41 17.05 -3.49 -0.10 -1.42 -0.13 -6.73 8.47 5.41 0.47 21.30 -6.28 -0.11 1.66 0.06 -1.62 -2.58 0.52 
117.2585 96.5342 -117.7287 3.56 -19.53 7.68 0.54 20.64 -3.22 0.57 20.61 -3.20 -0.18 -0.70 0.26 25.26 -20.53 -71.86 9.19 -26.19 -2.44 -4.08 8.54 5.77 -0.01 -0.80 0.01 -25.38 -21.45 94.53 -13.80 -16.30 3.33 15.81 -1.17 -62.28 0.25 -14.44 1.77 0.23 -7.13 1.77 7.33 17.08 -3.78 -0.10 -1.36 -0.13 -6.71 8.46 5.34 0.42 21.60 -6.72 -0.10 1.39 0.06 -1.60 -2.55 0.63 
117.3058 96.5226 -117.6122 3.69 -19.54 8.02 0.53 20.64 -3.31 0.55 20.61 -3.29 -0.18 -0.70 0.26 25.17 -20.44 -71.69 9.19 -26.11 -2.43 -4.41 8.94 5.26 -0.01 -0.80 0.01 -25.53 -21.49 94.32 -13.80 -16.43 3.33 15.89 -0.62 -63.23 0.32 -14.23 1.58 0.31 -6.91 1.58 7.25 17.13 -4.11 -0.09 -1.33 -0.13 -6.67 8.31 5.41 0.39 21.79 -6.90 -0.09 1.28 0.05 -1.55 -2.61 0.61 
117.3859 96.5114 -117.5144 3.78 -19.52 8.23 0.52 20.63 -3.36 0.54 20.60 -3.35 -0.18 -0.70 0.26 25.05 -20.31 -71.28 9.20 -26.09 -2.43 -4.66 9.36 4.62 -0.01 -0.80 0.01 -25.63 -21.42 94.08 -13.80 -16.40 3.33 15.99 -0.08 -64.16 0.41 -13.96 1.35 0.44 -6.65 1.36 7.15 17.17 -4.42 -0.09 -1.32 -0.14 -6.62 8.14 5.58 0.31 21.83 -6.86 -0.08 1.36 0.04 -1.50 -2.75 0.47 
117.5057 96.5043 -117.4294 3.85 -19.48 8.32 0.48 20.61 -3.41 0.50 20.58 -3.40 -0.18 -0.70 0.26 24.88 -20.17 -70.51 9.20 -26.06 -2.43 -5.01 9.43 3.82 -0.01 -0.80 0.01 -25.68 -21.29 93.83 -13.81 -16.24 3.33 16.06 0.10 -64.28 0.54 -13.63 1.11 0.59 -6.32 1.13 7.01 17.21 -4.72 -0.08 -1.35 -0.14 -6.56 7.98 5.79 0.16 21.82 -6.86 -0.06 1.52 0.03 -1.42 -2.91 0.43 
117.6719 96.5009 -117.3539 3.93 -19.46 8.38 0.42 20.61 -3.46 0.44 20.57 -3.45 -0.18 -0.70 0.26 24.62 -20.06 -69.37 9.20 -25.96 -2.43 -5.59 8.95 2.74 -0.01 -0.80 0.01 -25.68 -21.14 93.59 -13.81 -16.07 3.33 16.00 -0.19 -63.88 0.72 -13.15 0.85 0.80 -5.83 0.87 6.81 17.25 -5.02 -0.07 -1.31 -0.14 -6.47 7.79 6.05 -0.06 21.84 -7.06 -0.04 1.66 0.02 -1.29 -3.07 0.67 
117.8865 96.4984 -117.2889 4.00 -19.49 8.38 0.35 20.63 -3.52 0.37 20.60 -3.51 -0.18 -0.70 0.26 24.33 -19.95 -67.98 9.20 -25.89 -2.42 -6.30 8.29 1.15 -0.01 -0.80 0.01 -25.61 -20.99 93.41 -13.82 -15.86 3.33 15.87 -0.72 -63.57 1.00 -12.43 0.51 1.13 -5.11 0.53 6.58 17.30 -5.32 -0.05 -1.18 -0.13 -6.36 7.57 6.36 -0.37 21.89 -7.45 -0.03 1.77 0.02 -1.11 -3.21 1.16 
118.1635 96.4948 -117.2342 4.04 -19.56 8.29 0.27 20.70 -3.59 0.29 20.67 -3.58 -0.18 -0.70 0.26 24.01 -19.88 -66.59 9.20 -25.83 -2.42 -6.89 7.95 -0.89 -0.01 -0.80 0.01 -25.51 -20.95 93.50 -13.83 -15.66 3.33 15.76 -1.25 -63.71 1.39 -11.53 0.02 1.58 -4.22 0.04 6.30 17.37 -5.58 -0.04 -0.94 -0.12 -6.20 7.27 6.73 -0.69 21.99 -7.88 -0.02 1.82 0.02 -0.87 -3.28 1.83 
118.5280 96.4906 -117.1909 4.06 -19.69 8.12 0.18 20.84 -3.69 0.21 20.80 -3.68 -0.18 -0.70 0.26 23.72 -19.89 -65.29 9.20 -25.80 -2.42 -7.28 8.30 -3.03 -0.01 -0.80 0.01 -25.44 -21.05 93.94 -13.84 -15.38 3.33 15.71 -1.91 -64.27 1.94 -10.48 -0.65 2.21 -3.16 -0.62 5.98 17.50 -5.82 -0.03 -0.65 -0.12 -6.00 6.94 7.15 -1.07 22.14 -8.34 -0.01 1.88 0.02 -0.56 -3.30 2.58 
118.9916 96.4866 -117.1641 4.06 -19.86 7.92 0.08 21.02 -3.83 0.10 20.99 -3.82 -0.18 -0.70 0.26 23.54 -20.01 -64.24 9.20 -25.85 -2.42 -7.51 9.02 -4.77 -0.01 -0.80 0.01 -25.41 -21.21 94.45 -13.86 -15.11 3.32 15.65 -2.56 -64.61 2.66 -9.30 -1.50 3.03 -1.98 -1.46 5.59 17.65 -6.02 -0.00 -0.33 -0.11 -5.76 6.60 7.60 -1.52 22.33 -8.84 0.01 1.92 0.04 -0.21 -3.29 3.38 
119.5461 96.4831 -117.1601 4.07 -20.02 7.71 -0.03 21.23 -4.01 -0.01 21.20 -4.00 -0.18 -0.70 0.26 23.54 -20.22 -63.73 9.20 -25.84 -2.42 -7.63 9.46 -5.73 -0.01 -0.80 0.01 -25.37 -21.34 94.66 -13.86 -15.06 3.32 15.52 -2.74 -63.87 3.50 -8.05 -2.46 3.99 -0.75 -2.43 5.15 17.76 -6.16 0.03 0.06 -0.12 -5.49 6.33 8.01 -2.04 22.52 -9.38 0.03 1.93 0.07 0.20 -3.23 4.27 
120.1771 96.4772 -117.1785 4.06 -20.15 7.48 -0.15 21.45 -4.20 -0.13 21.42 -4.19 -0.18 -0.70 0.26 23.85 -20.49 -63.75 9.20 -25.90 -2.43 -7.68 9.47 -5.81 -0.01 -0.80 0.01 -25.24 -21.38 94.42 -13.85 -15.18 3.33 15.32 -2.25 -62.26 4.42 -6.82 -3.46 5.03 0.48 -3.43 4.65 17.77 -6.10 0.07 0.53 -0.12 -5.15 6.00 8.27 -2.59 22.65 -9.83 0.08 1.96 0.13 0.61 -3.18 5.15 
120.8731 96.4623 -117.2149 3.96 -20.24 7.10 -0.25 21.68 -4.37 -0.23 21.64 -4.36 -0.18 -0.70 0.26 24.38 -20.76 -64.14 9.19 -26.20 -2.44 -7.58 9.22 -5.07 -0.01 -0.80 0.01 -25.04 -21.41 94.05 -13.85 -15.30 3.33 15.18 -1.56 -61.53 5.34 -5.72 -4.46 6.07 1.57 -4.45 4.13 17.70 -5.77 0.11 1.17 -0.10 -4.73 5.44 8.43 -3.15 22.66 -9.85 0.13 2.04 0.17 1.05 -3.12 5.86 
121.6319 96.4397 -117.2772 3.70 -20.23 6.43 -0.31 21.88 -4.48 -0.28 21.84 -4.47 -0.18 -0.70 0.26 24.90 -20.98 -64.52 9.18 -26.59 -2.46 -7.26 9.07 -3.74 -0.01 -0.80 0.01 -24.93 -21.45 93.85 -13.84 -15.38 3.33 15.16 -0.93 -62.23 6.16 -4.85 -5.54 7.03 2.42 -5.53 3.64 17.50 -5.21 0.15 1.90 -0.05 -4.23 4.62 8.66 -3.71 22.46 -9.29 0.16 2.17 0.20 1.52 -3.04 6.18 
122.4540 96.4195 -117.3821 3.31 -20.01 5.55 -0.30 22.03 -4.55 -0.28 22.00 -4.54 -0.18 -0.70 0.26 25.19 -21.10 -64.61 9.16 -27.03 -2.48 -6.80 9.19 -2.18 -0.01 -0.80 0.01 -24.97 -21.48 93.93 -13.84 -15.46 3.33 15.15 -0.46 -63.47 6.83 -4.26 -6.71 7.84 3.00 -6.71 3.14 17.07 -4.56 0.19 2.68 0.01 -3.69 3.64 9.01 -4.26 21.95 -8.28 0.20 2.36 0.21 2.00 -2.96 6.18 
123.3257 96.4047 -117.5337 2.86 -19.54 4.54 -0.21 22.05 -4.54 -0.19 22.02 -4.53 -0.18 -0.70 0.26 25.26 -21.17 -64.52 9.15 -27.31 -2.49 -6.35 9.37 -0.93 -0.01 -0.80 0.01 -25.04 -21.46 94.38 -13.84 -15.41 3.33 15.14 -0.23 -64.71 7.39 -3.90 -7.98 8.55 3.34 -7.99 2.65 16.33 -3.88 0.23 3.50 0.10 -3.13 2.63 9.46 -4.82 21.10 -7.06 0.22 2.58 0.22 2.50 -2.89 6.01 
124.2188 96.3858 -117.7241 2.36 -18.80 3.45 -0.10 21.96 -4.47 -0.08 21.93 -4.46 -0.18 -0.70 0.26 25.28 -21.23 -64.30 9.15 -27.52 -2.50 -6.13 9.38 -0.64 -0.01 -0.80 0.01 -25.06 -21.46 95.24 -13.85 -15.22 3.33 15.22 -0.19 -65.99 7.90 -3.70 -9.17 9.21 3.51 -9.19 2.18 15.32 -3.09 0.28 4.31 0.18 -2.57 1.61 9.93 -5.34 19.86 -5.69 0.24 2.98 0.22 3.01 -2.85 5.81 
125.1130 96.3494 -117.9557 1.79 -17.73 2.14 0.00 21.75 -4.35 0.03 21.72 -4.34 -0.18 -0.70 0.26 25.33 -21.27 -64.03 9.14 -27.74 -2.51 -6.22 9.12 -1.00 -0.01 -0.80 0.01 -25.01 -21.44 96.12 -13.86 -15.06 3.32 15.30 -0.15 -66.87 8.37 -3.64 -10.14 9.80 3.55 -10.16 1.76 13.99 -1.95 0.32 5.12 0.26 -2.00 0.57 10.22 -5.80 18.04 -4.15 0.25 3.79 0.22 3.51 -2.97 5.58 
126.0130 96.2783 -118.2413 1.16 -16.24 0.57 0.12 21.33 -4.07 0.14 21.29 -4.06 -0.18 -0.70 0.26 25.34 -21.25 -63.97 9.13 -27.89 -2.52 -6.48 8.93 -0.78 -0.01 -0.80 0.01 -24.97 -21.23 96.45 -13.86 -15.01 3.32 15.21 -0.03 -66.72 8.80 -3.68 -11.00 10.32 3.49 -11.03 1.39 12.22 -0.26 0.35 5.93 0.35 -1.44 -0.50 10.21 -6.21 15.48 -2.48 0.28 5.11 0.23 4.08 -3.41 5.40 
126.9443 96.1664 -118.5948 0.65 -14.27 -1.26 0.20 20.71 -3.64 0.23 20.68 -3.63 -0.18 -0.70 0.26 25.25 -21.25 -64.33 9.13 -27.97 -2.52 -6.80 9.21 0.66 -0.01 -0.80 0.01 -24.97 -20.87 96.20 -13.86 -14.99 3.32 14.90 0.15 -66.15 9.20 -3.83 -11.84 10.83 3.32 -11.87 0.99 9.96 2.07 0.39 6.77 0.44 -0.87 -1.56 9.80 -6.67 12.01 -0.77 0.32 7.16 0.22 4.62 -4.16 5.41 
127.9204 96.0572 -119.0180 0.38 -11.95 -3.30 0.17 20.01 -3.09 0.19 19.98 -3.08 -0.18 -0.70 0.26 25.10 -21.33 -64.69 9.13 -28.02 -2.53 -7.19 9.66 2.16 -0.01 -0.80 0.01 -25.02 -20.56 95.73 -13.87 -14.87 3.32 14.37 0.41 -65.93 9.65 -4.15 -12.64 11.37 2.98 -12.65 0.49 7.29 4.75 0.43 7.63 0.52 -0.30 -2.56 9.23 -7.21 7.71 0.80 0.36 9.95 0.17 4.89 -4.92 5.73 
128.9062 96.0104 -119.4774 0.43 -9.49 -5.40 -0.00 19.38 -2.57 0.02 19.35 -2.56 -0.18 -0.70 0.26 25.11 -21.42 -64.51 9.12 -28.26 -2.54 -7.52 9.73 2.89 -0.01 -0.80 0.01 -25.15 -20.52 95.08 -13.87 -14.69 3.32 13.62 0.69 -65.97 10.14 -4.60 -13.23 11.93 2.51 -13.23 -0.12 4.42 7.21 0.46 8.51 0.60 0.28 -3.46 8.90 -7.78 2.84 1.99 0.37 13.30 0.07 4.72 -5.26 6.42 
